<svg width="1200" height="760" viewBox="0 0 1200 760" fill="none" xmlns="http://www.w3.org/2000/svg">
  <rect width="1200" height="760" fill="#F6F8FC"/>
  <rect width="74" height="760" fill="white"/>
  <rect x="16" y="18" width="42" height="42" rx="14" fill="#2563EB"/>
  <text x="37" y="46" text-anchor="middle" font-family="Arial, sans-serif" font-size="22" font-weight="800" fill="white">研</text>
  <rect x="10" y="96" width="54" height="58" rx="12" fill="#EDF4FF"/>
  <text x="37" y="132" text-anchor="middle" font-family="Arial, sans-serif" font-size="20">⌂</text>
  <text x="102" y="46" font-family="Arial, sans-serif" font-size="24" font-weight="800" fill="#0F172A">你的保研赛博北天搭子</text>
  <text x="102" y="72" font-family="Arial, sans-serif" font-size="14" fill="#64748B">用一个清晰表格管理申请、入营、复试、结果和材料准备</text>
  <rect x="878" y="27" width="94" height="34" rx="10" fill="#ECFDF5" stroke="#BBF7D0"/>
  <text x="925" y="49" text-anchor="middle" font-family="Arial, sans-serif" font-size="12" font-weight="700" fill="#047857">已自动保存</text>
  <rect x="986" y="27" width="98" height="34" rx="10" fill="white" stroke="#D6E0EF"/>
  <text x="1035" y="49" text-anchor="middle" font-family="Arial, sans-serif" font-size="12" font-weight="700" fill="#1E3A8A">数据与提醒</text>
  <rect x="1098" y="27" width="78" height="34" rx="10" fill="#2563EB"/>
  <text x="1137" y="49" text-anchor="middle" font-family="Arial, sans-serif" font-size="12" font-weight="700" fill="white">通知解析</text>
  <g transform="translate(102 112)">
    <rect width="190" height="118" rx="16" fill="white" stroke="#E4EAF3"/>
    <text x="18" y="34" font-family="Arial, sans-serif" font-size="13" font-weight="700" fill="#64748B">总项目数</text>
    <text x="18" y="72" font-family="Arial, sans-serif" font-size="30" font-weight="900" fill="#0F172A">6</text>
    <rect x="18" y="92" width="154" height="8" rx="4" fill="#E5E7EB"/>
    <rect x="18" y="92" width="46" height="8" rx="4" fill="#2563EB"/>
  </g>
  <g transform="translate(310 112)">
    <rect width="190" height="118" rx="16" fill="white" stroke="#E4EAF3"/>
    <text x="18" y="34" font-family="Arial, sans-serif" font-size="13" font-weight="700" fill="#64748B">申请材料完成率</text>
    <text x="18" y="72" font-family="Arial, sans-serif" font-size="30" font-weight="900" fill="#0F172A">54%</text>
    <rect x="18" y="92" width="154" height="8" rx="4" fill="#E5E7EB"/>
    <rect x="18" y="92" width="83" height="8" rx="4" fill="#10B981"/>
  </g>
  <g transform="translate(518 112)">
    <rect width="190" height="118" rx="16" fill="white" stroke="#E4EAF3"/>
    <text x="18" y="34" font-family="Arial, sans-serif" font-size="13" font-weight="700" fill="#64748B">已入营项目</text>
    <text x="18" y="72" font-family="Arial, sans-serif" font-size="30" font-weight="900" fill="#0F172A">3</text>
    <rect x="18" y="92" width="154" height="8" rx="4" fill="#E5E7EB"/>
    <rect x="18" y="92" width="58" height="8" rx="4" fill="#8B5CF6"/>
  </g>
  <g transform="translate(726 112)">
    <rect width="190" height="118" rx="16" fill="white" stroke="#E4EAF3"/>
    <text x="18" y="34" font-family="Arial, sans-serif" font-size="13" font-weight="700" fill="#64748B">复试准备完成率</text>
    <text x="18" y="72" font-family="Arial, sans-serif" font-size="30" font-weight="900" fill="#0F172A">38%</text>
    <rect x="18" y="92" width="154" height="8" rx="4" fill="#E5E7EB"/>
    <rect x="18" y="92" width="59" height="8" rx="4" fill="#F59E0B"/>
  </g>
  <g transform="translate(934 112)">
    <rect width="190" height="118" rx="16" fill="white" stroke="#E4EAF3"/>
    <text x="18" y="34" font-family="Arial, sans-serif" font-size="13" font-weight="700" fill="#64748B">等待最终结果</text>
    <text x="18" y="72" font-family="Arial, sans-serif" font-size="30" font-weight="900" fill="#0F172A">1</text>
    <rect x="18" y="92" width="154" height="8" rx="4" fill="#E5E7EB"/>
    <rect x="18" y="92" width="31" height="8" rx="4" fill="#EF4444"/>
  </g>
  <rect x="102" y="258" width="1022" height="214" rx="16" fill="white" stroke="#E4EAF3"/>
  <text x="126" y="295" font-family="Arial, sans-serif" font-size="18" font-weight="800" fill="#0F172A">优先处理项目</text>
  <text x="126" y="320" font-family="Arial, sans-serif" font-size="13" fill="#64748B">按所有关键节点的时间紧迫性排序</text>
  <g transform="translate(126 344)">
    <rect width="300" height="96" rx="14" fill="#FFFAFA" stroke="#FECACA"/>
    <rect width="5" height="96" rx="2.5" fill="#EF4444"/>
    <text x="22" y="30" font-family="Arial, sans-serif" font-size="16" font-weight="800" fill="#0F172A">上海交通大学 - 安泰经济与管理学院</text>
    <text x="22" y="54" font-family="Arial, sans-serif" font-size="13" fill="#64748B">申请截止 · 05-30 12:00</text>
    <text x="22" y="82" font-family="Arial, sans-serif" font-size="22" font-weight="900" fill="#EF4444">近期</text>
  </g>
  <g transform="translate(450 344)">
    <rect width="300" height="96" rx="14" fill="#FFFDF5" stroke="#E4EAF3"/>
    <rect width="5" height="96" rx="2.5" fill="#F59E0B"/>
    <text x="22" y="30" font-family="Arial, sans-serif" font-size="16" font-weight="800" fill="#0F172A">中国科学技术大学 - 电子工程学院</text>
    <text x="22" y="54" font-family="Arial, sans-serif" font-size="13" fill="#64748B">申请截止 · 06-03 17:00</text>
    <text x="22" y="82" font-family="Arial, sans-serif" font-size="22" font-weight="900" fill="#F59E0B">还有 17 天</text>
  </g>
  <g transform="translate(774 344)">
    <rect width="300" height="96" rx="14" fill="white" stroke="#E4EAF3"/>
    <rect width="5" height="96" rx="2.5" fill="#2563EB"/>
    <text x="22" y="30" font-family="Arial, sans-serif" font-size="16" font-weight="800" fill="#0F172A">复旦大学 - 新闻学院</text>
    <text x="22" y="54" font-family="Arial, sans-serif" font-size="13" fill="#64748B">复试材料截止 · 06-16 18:00</text>
    <text x="22" y="82" font-family="Arial, sans-serif" font-size="22" font-weight="900" fill="#2563EB">还有 30 天</text>
  </g>
</svg>
