<svg width="1200" height="760" viewBox="0 0 1200 760" fill="none" xmlns="http://www.w3.org/2000/svg">
  <rect width="1200" height="760" fill="#F6F8FC"/>
  <rect width="74" height="760" fill="white"/>
  <rect x="10" y="164" width="54" height="58" rx="12" fill="#EDF4FF"/>
  <text x="37" y="199" text-anchor="middle" font-family="Arial, sans-serif" font-size="20">▦</text>
  <text x="102" y="46" font-family="Arial, sans-serif" font-size="24" font-weight="800" fill="#0F172A">项目总表</text>
  <text x="102" y="72" font-family="Arial, sans-serif" font-size="14" fill="#64748B">筛选、排序并维护每个保研项目的时间线与清单</text>
  <rect x="102" y="112" width="1022" height="560" rx="16" fill="white" stroke="#E4EAF3"/>
  <text x="126" y="150" font-family="Arial, sans-serif" font-size="18" font-weight="800" fill="#0F172A">项目总表</text>
  <rect x="126" y="176" width="260" height="38" rx="10" fill="white" stroke="#D6E0EF"/>
  <text x="146" y="200" font-family="Arial, sans-serif" font-size="13" fill="#64748B">搜索学校 / 学院 / 方向...</text>
  <rect x="398" y="176" width="120" height="38" rx="10" fill="white" stroke="#D6E0EF"/>
  <text x="458" y="200" text-anchor="middle" font-family="Arial, sans-serif" font-size="13" fill="#475569">全部阶段</text>
  <rect x="530" y="176" width="120" height="38" rx="10" fill="white" stroke="#D6E0EF"/>
  <text x="590" y="200" text-anchor="middle" font-family="Arial, sans-serif" font-size="13" fill="#475569">全部类型</text>
  <rect x="126" y="238" width="974" height="382" rx="14" fill="white" stroke="#E4EAF3"/>
  <rect x="126" y="238" width="974" height="48" rx="14" fill="#F8FAFC"/>
  <text x="150" y="267" font-family="Arial, sans-serif" font-size="12" font-weight="800" fill="#52647E">学校（学院）</text>
  <text x="330" y="267" font-family="Arial, sans-serif" font-size="12" font-weight="800" fill="#52647E">方向</text>
  <text x="450" y="267" font-family="Arial, sans-serif" font-size="12" font-weight="800" fill="#52647E">当前阶段</text>
  <text x="640" y="267" font-family="Arial, sans-serif" font-size="12" font-weight="800" fill="#52647E">下一节点</text>
  <text x="850" y="267" font-family="Arial, sans-serif" font-size="12" font-weight="800" fill="#52647E">申请材料</text>
  <g font-family="Arial, sans-serif">
    <line x1="126" y1="286" x2="1100" y2="286" stroke="#E4EAF3"/>
    <text x="150" y="326" font-size="14" font-weight="800" fill="#0F172A">上海交通大学</text>
    <text x="150" y="348" font-size="12" fill="#64748B">安泰经济与管理学院</text>
    <text x="330" y="336" font-size="14" fill="#334155">金融学</text>
    <rect x="450" y="315" width="88" height="26" rx="13" fill="#DBEAFE"/>
    <text x="494" y="333" text-anchor="middle" font-size="12" font-weight="800" fill="#1D4ED8">申请准备中</text>
    <text x="640" y="326" font-size="14" font-weight="800" fill="#EF4444">申请截止：05-30 12:00</text>
    <text x="640" y="348" font-size="12" fill="#64748B">13 天后</text>
    <rect x="850" y="324" width="112" height="8" rx="4" fill="#E5E7EB"/>
    <rect x="850" y="324" width="62" height="8" rx="4" fill="#2563EB"/>
    <line x1="126" y1="374" x2="1100" y2="374" stroke="#E4EAF3"/>
    <text x="150" y="414" font-size="14" font-weight="800" fill="#0F172A">清华大学</text>
    <text x="150" y="436" font-size="12" fill="#64748B">计算机系</text>
    <text x="330" y="424" font-size="14" fill="#334155">人工智能</text>
    <rect x="450" y="403" width="112" height="26" rx="13" fill="#DCFCE7"/>
    <text x="506" y="421" text-anchor="middle" font-size="12" font-weight="800" fill="#047857">初筛通过/进入复试</text>
    <text x="640" y="414" font-size="14" font-weight="800" fill="#F59E0B">复试材料截止：06-18 17:00</text>
    <text x="640" y="436" font-size="12" fill="#64748B">32 天后</text>
    <rect x="850" y="412" width="112" height="8" rx="4" fill="#E5E7EB"/>
    <rect x="850" y="412" width="112" height="8" rx="4" fill="#10B981"/>
    <line x1="126" y1="462" x2="1100" y2="462" stroke="#E4EAF3"/>
    <text x="150" y="502" font-size="14" font-weight="800" fill="#0F172A">浙江大学</text>
    <text x="150" y="524" font-size="12" fill="#64748B">计算机学院</text>
    <text x="330" y="512" font-size="14" fill="#334155">软件工程</text>
    <rect x="450" y="491" width="106" height="26" rx="13" fill="#FEF3C7"/>
    <text x="503" y="509" text-anchor="middle" font-size="12" font-weight="800" fill="#B45309">已复试/等待结果</text>
    <text x="640" y="502" font-size="14" font-weight="800" fill="#10B981">最终结果公布：06-30</text>
    <text x="640" y="524" font-size="12" fill="#64748B">44 天后</text>
    <rect x="850" y="500" width="112" height="8" rx="4" fill="#E5E7EB"/>
    <rect x="850" y="500" width="112" height="8" rx="4" fill="#10B981"/>
  </g>
</svg>
